/* XPM */
static char *dummy[]={
"32 32 6 1",
"a c #000000",
"d c #1b1b1b",
"c c #2d2d2d",
"# c #362030",
". c #3d253b",
"b c #ffffff",
"....................############",
"....................############",
"..............aaaa............##",
"...........aaaaaaaaaa.........##",
".........aaaaaaaaaaaaaa.......##",
".......aaaaaaaaaaaaaaaaaa.....##",
".............aaaaba...........##",
".............aaaaba...........##",
".............aaaaaa...........##",
"............cccaaa............##",
"...........ccccaaac...........##",
"...........cccccccc...........##",
"##########ccccccccc#####..##....",
"##########ccccccccac####..##....",
"..........cccccccaac............",
"..........ccccccaaac.ddd........",
".........cccccccaaaacddd........",
".........ccccccaaaaacd..........",
".........ccccccaaaaac...........",
"........bccccccaaaaac...........",
".....bbbcccccccaaaaaac..........",
"...bbbbbcccccccaaaaaac..........",
"...bbb..ccccccaaaaaaac..........",
"........ccccccaaaaaaac..........",
"........ccccccaaaaaaac..........",
".........cccccaaaaaaa...........",
"..........acca...aaa............",
"..........aa......aa............",
"..........a........a............",
"..........a........a............",
"................................",
"................................"};
