/* XPM */
static char *dummy[]={
"32 32 8 1",
"# c #362030",
". c #3d253b",
"a c #947115",
"f c #a27c17",
"c c #cda332",
"d c #d9b962",
"b c #dfc47a",
"e c #e5ce92",
"....................############",
"....................############",
"..............................##",
"..............................##",
"..............................##",
"..............................##",
".............aaaa.............##",
".............abaca............##",
"............accbaca...........##",
"............acacaca...........##",
"...........accacbaca..........##",
"...........acacadaca..........##",
"###########acacadaca####..##....",
"###########acadadaca####..##....",
"...........acababaca............",
"...........acaeabaca............",
"...........acaeabaca............",
"...........acababaca............",
"...........acadabaca............",
"...........acacaeaca............",
"...........acacabaca............",
"...........accaccaca............",
"............acfbaca.............",
"............acdbaca.............",
".............abaca..............",
".............aaaa...............",
"................................",
"................................",
"................................",
"................................",
"................................",
"................................"};
