/* XPM */
static char *dummy[]={
"32 32 10 1",
"# c #362030",
". c #3d253b",
"f c #8e6c13",
"a c #8f6c14",
"e c #937117",
"b c #caa133",
"g c #d0ab4c",
"c c #d0ac4c",
"h c #d5b55d",
"d c #d6b55e",
"....................############",
"....................############",
"..............................##",
"..............................##",
"..............................##",
".............aaaaaa...........##",
"..........aaabbcdddaaa........##",
".........abbbbbbbccddda.......##",
"........abbbbbbbbbbbccda......##",
".......abbbbbeeeeeebbbcda.....##",
"......abbbbbebccdddebbbcda....##",
"......abbbbebbbbbccdebbcda....##",
"######fbbbebbbbbbbbghebbda##....",
"#####fbbbebbbbbbbbbbghebcdf#....",
".....abbbebbbbbbbbbbcdebbda.....",
".....abbbebbbbbbbbbbcdebbda.....",
".....abbbebbbbbbbbbbcdebcda.....",
".....abbbebbbbbbbbbbcdebcda.....",
".....abbbebbbbbbbbbbcdebcda.....",
"......abbbebbbbbbbbcdebbda......",
"......abbbbebbbbbccdebbcda......",
"......abbbbbebccdddebbbcda......",
".......abbbbbeeeeeebbccda.......",
"........abbbbbbbbbbbccda........",
".........abbbbbbbccddda.........",
"..........aaabcddddaaa..........",
".............aaaaaa.............",
"................................",
"................................",
"................................",
"................................",
"................................"};
