/* XPM */
static char *dummy[]={
"32 32 8 1",
"# c #362030",
". c #3d253b",
"a c #947115",
"f c #a27c17",
"b c #cda332",
"d c #d9b962",
"c c #dfc47a",
"e c #e5ce92",
"....................############",
"....................############",
"..............................##",
"..............................##",
"..............................##",
"..............................##",
"...............aaaa...........##",
"..............abaca...........##",
".............ababbca..........##",
".............abababa..........##",
"............ababbabca.........##",
"............abababada.........##",
"############abababada###..##....",
"############ababadada###..##....",
"............ababacaca...........",
"............ababaeaca...........",
"............ababaeaca...........",
"............ababacaca...........",
"............ababadaca...........",
"............abababaea...........",
"............abababaca...........",
"............ababbabba...........",
".............abadfca............",
".............ababdca............",
"..............abaca.............",
"...............aaaa.............",
"................................",
"................................",
"................................",
"................................",
"................................",
"................................"};
