/* XPM */
static char *dummy[]={
"32 32 8 1",
"# c #362030",
". c #3d253b",
"a c #947115",
"b c #cda332",
"c c #d9b962",
"f c #dfc47a",
"d c #e2c986",
"e c #e8d49e",
"....................############",
"....................############",
"..............................##",
"..............................##",
"..............................##",
"..............................##",
"...........aaaaaaaa...........##",
"..........abbbcdabba..........##",
".........abbbbbbdabba.........##",
"........abbaaaabbdabba........##",
"........ababbdcabbdaba........##",
".......abbabbbdabbcabba.......##",
"#######ababbbbbeabdabba#..##....",
"#######ababbbbbdabeabba#..##....",
".......ababbbbbdabdabba.........",
".......ababbbbbfabcabba.........",
".......ababbbbbfabcabba.........",
".......ababbbbbcabdabba.........",
".......ababbbbbcabdabba.........",
".......ababbbbbbabeabba.........",
".......abbabbbeabbeabba.........",
"........ababbcdabcdaba..........",
"........abbaaaabcdabba..........",
".........abbbbbcdabba...........",
"..........abbbcdabba............",
"...........aaaaaaaa.............",
"................................",
"................................",
"................................",
"................................",
"................................",
"................................"};
