/* XPM */
static char *dummy[]={
"32 32 14 1",
"# c #362030",
". c #3d253b",
"a c #947115",
"g c #a27c17",
"k c #af8619",
"l c #bc901b",
"b c #cda332",
"c c #d3ae4a",
"d c #d9b962",
"e c #dfc47a",
"f c #e2c986",
"j c #e3ce96",
"i c #e5ce92",
"h c #e8d49e",
"....................############",
"....................############",
"..............................##",
"..............................##",
"..............................##",
"..............................##",
".............aaaaaaaa.........##",
"............abbabbbcca........##",
"...........abbabbbbbbca.......##",
"..........abbabbbaaaabca......##",
"..........ababbbabbddaba......##",
".........abbabbbabbbdabda.....##",
"#########abbabbabbbbbdada.##....",
"#########abbabbabbbbbdaea.##....",
".........abbabbabbbbbeaea.......",
".........abbabbabbbbbfafg.......",
".........abbabbabbbbbfahg.......",
".........gbbabbabbbbbiaja.......",
".........kbbabbabbbbbiaia.......",
".........abbabbabbbbbiaha.......",
".........abbabbbabbbcabha.......",
"..........ababbbabbccahl........",
"..........abbabbbaaaabca........",
"...........abbabbbbbbca.........",
"............abbabbbbca..........",
".............aaaaaaaa...........",
"................................",
"................................",
"................................",
"................................",
"................................",
"................................"};
