/* XPM */
static char *dummy[]={
"32 32 8 1",
"# c #362030",
". c #3d253b",
"a c #947115",
"b c #cda332",
"c c #d3ae4a",
"d c #d9b962",
"e c #e2c986",
"f c #e8d49e",
"....................############",
"....................############",
"..............................##",
"..............................##",
"..............................##",
"..............................##",
"................aa............##",
"................aa............##",
"...............abca...........##",
"...............abca...........##",
"...............abca...........##",
"...............abda...........##",
"###############abda#####..##....",
"###############abea#####..##....",
"...............abea.............",
"...............abfa.............",
"...............abfa.............",
"...............abea.............",
"...............abea.............",
"...............abda.............",
"...............abda.............",
"...............abda.............",
"...............abca.............",
"...............abca.............",
"................aa..............",
"................aa..............",
"................................",
"................................",
"................................",
"................................",
"................................",
"................................"};
