/* XPM */
static char *dummy[]={
"32 32 10 1",
"# c #25131a",
". c #3d253b",
"c c #593756",
"f c #895a45",
"a c #8c7254",
"d c #90919e",
"h c #a89780",
"e c #adc1cf",
"b c #b19d83",
"g c #bf704d",
"................................",
"..........##########............",
"..........##########............",
"........##aabbbbbbaa##..........",
"........##aabbbbbbaa##..........",
"......##aabbbbbbbbbbaa##........",
"......##aabbbbbbbbbbaa##........",
"......##bbcccc##bbcc####........",
"......##bbcccc##bbcc####........",
"......##bb######bb######........",
"......##bb######bb######........",
"........##aabbbbbbbbbb##........",
"........##aabbbbbbbbbb##........",
"....########aabb##bb##......####",
"....########aabb##bb##......####",
"..##ddddee############....##dd##",
"..##ddddee############....##dd##",
"..##ddeeeeffgg##hh##aa####ddee##",
"..##ddeeeeffgg##hh##aa####ddee##",
"..##########ffgg####bb##ddee##..",
"..##########ffgg####bb##ddee##..",
"....##aa##aa##eegg####bb####....",
"....##aa##aa##eegg####bb####....",
"....######aabb##ff##gg####......",
"....######aabb##ff##gg####......",
"........##aa########............",
"........##aa########............",
"......##bb##..##bb##............",
"......##bb##..##bb##............",
"......##aa##..##aa##............",
"......##aa##..##aa##............",
"................................"};
