/* XPM */
static char *dummy[]={
"32 32 8 1",
"e c #25131a",
"b c #362030",
". c #3d253b",
"f c #523b40",
"a c #895a45",
"c c #90919e",
"d c #adc1cf",
"# c #bf704d",
"......####............####......",
"......####............####......",
"......aaaa............aaaa......",
"......aaaa............aaaa......",
"......aaaa............aaaa......",
"......aaaa............aaaa......",
"bbbb##ccdd############ddcc##bbbb",
"bbbb##ccdd############ddcc##bbbb",
"bbbbaaaaaaaaaaaaaaaaaaaaaaaabbbb",
"bbbbaaaaaaaaaaaaaaaaaaaaaaaabbbb",
"bbeeeeffffeeeeeeeeeeeeffffeeeebb",
"bbeeeeffffeeeeeeeeeeeeffffeeeebb",
"bbeeeeaaaaeeeeeeeeeeeeaaaaeeeebb",
"bbeeeeaaaaeeeeeeeeeeeeaaaaeeeebb",
"bbeeeeaaaaeeeeeeeeeeeeaaaaeeeebb",
"bbeeeeaaaaeeeeeeeeeeeeaaaaeeeebb",
"bbeeeeaaaaeeeeeeeeeeeeaaaaeeeebb",
"bbeeeeaaaaeeeeeeeeeeeeaaaaeeeebb",
"bbeeeeaaaaeeeeeeeeeeeeaaaaeeeebb",
"bbeeeeaaaaeeeeeeeeeeeeaaaaeeeebb",
"bbeeeeaaaaeeeeeeeeeeeeaaaaeeeebb",
"bbeeeeaaaaeeeeeeeeeeeeaaaaeeeebb",
"bbee##ccdd############ddcc##eebb",
"bbee##ccdd############ddcc##eebb",
"bbeeaaaaaaaaaaaaaaaaaaaaaaaaeebb",
"bbeeaaaaaaaaaaaaaaaaaaaaaaaaeebb",
"bbeeeeffffeeeeeeeeeeeeffffeeeebb",
"bbeeeeffffeeeeeeeeeeeeffffeeeebb",
"bbeeeeaaaaeeeeeeeeeeeeaaaaeeeebb",
"bbeeeeaaaaeeeeeeeeeeeeaaaaeeeebb",
"bbbbbbbbbbbbbbbbbbbbbbbbbbbbbbbb",
"bbbbbbbbbbbbbbbbbbbbbbbbbbbbbbbb"};
