/* XPM */
static char *dummy[]={
"32 32 2 1",
"# c #362030",
". c #3d253b",
"....................############",
"....................############",
"..............................##",
"..............................##",
"..............................##",
"..............................##",
"..............................##",
"..............................##",
"..............................##",
"..............................##",
"..............................##",
"..............................##",
"########################..##....",
"########################..##....",
"................................",
"................................",
"................................",
"................................",
"................................",
"................................",
"................................",
"................................",
"................................",
"................................",
"................................",
"................................",
"................................",
"................................",
"................................",
"................................",
"................................",
"................................"};
