/* XPM */
static char *_7bae2bd88b4454fbb9805b3fa0324cfe5b4EC8wdYBUokoY[] = {
/* columns rows colors chars-per-pixel */
"16 16 5 1 ",
"  c None",
". c #25131A",
"X c #C09344",
"o c #FFD569",
"O c #FFF1CC",
/* pixels */
"                ",
"                ",
"                ",
"      ....      ",
"     .XXXX.     ",
"    .XOOOoX.    ",
"   .XOOXXoOX.   ",
"   .XOXOoXoX.   ",
"   .XoXooXoX.   ",
"   .XOoXXooX.   ",
"    .XooooX.    ",
"     .XXXX.     ",
"      ....      ",
"                ",
"                ",
"                "
};
