/* XPM */
static char *dummy[]={
"32 32 10 1",
"f c #25131a",
"c c #3d253b",
"g c #422c3b",
"e c #483040",
"# c #4c2f49",
"h c #4f3740",
"d c #543740",
". c #593756",
"a c #6e4a48",
"b c #78514f",
"..##..............##############",
"..##..............##############",
"##aaaaaaaaaaaaaaaaaaaaaaaaaaaa##",
"##aaaaaaaaaaaaaaaaaaaaaaaaaaaa##",
"##aaaaaaaaaaaaaaaaaaaaaaaaaaaa##",
"##aaaaaaaaaaaaaaaaaaaaaaaaaaaa##",
"##bbbbbbbbbbbbbbbbbbbbbbbbbbbb##",
"##bbbbbbbbbbbbbbbbbbbbbbbbbbbb##",
"ccddddddddddddddddddddddddddddcc",
"ccddddddddddddddddddddddddddddcc",
"ccdddddddddddddddddddddddddddd##",
"ccdddddddddddddddddddddddddddd##",
"cceeddddddddddddddddddddddddeecc",
"cceeddddddddddddddddddddddddeecc",
"ffcccccccccccccccccccccccccccccc",
"ffcccccccccccccccccccccccccccccc",
"cceeddddddddeecceeddddddddddeecc",
"cceeddddddddeecceeddddddddddeecc",
"ccddddddddddddccddddddddddddddff",
"ccddddddddddddccddddddddddddddff",
"ffeeddddddddeeffeeddddddddddeecc",
"ffeeddddddddeeffeeddddddddddeecc",
"ccccccffffffffffffffffffffccccff",
"ccccccffffffffffffffffffffccccff",
"ffgghhhhhhhhhhhhhhhhhhhhhhhhggcc",
"ffgghhhhhhhhhhhhhhhhhhhhhhhhggcc",
"ffhhhhhhhhhhhhhhhhhhhhhhhhhhhhff",
"ffhhhhhhhhhhhhhhhhhhhhhhhhhhhhff",
"ffggggggggggggggggggggggggggggff",
"ffggggggggggggggggggggggggggggff",
"ffffffffffffffffffffffffffffffff",
"ffffffffffffffffffffffffffffffff"};
