/* XPM */
static char *dummy[]={
"32 32 24 1",
"a c #000000",
"v c #1c111c",
"u c #2a1928",
"n c #342a25",
"# c #362030",
"k c #3c312c",
". c #3d253b",
"i c #453a35",
"s c #4a413c",
"c c #512d23",
"q c #5a5237",
"b c #5b3c2c",
"d c #5e724a",
"p c #645c3f",
"e c #677755",
"t c #695d58",
"o c #6a7a5a",
"r c #70694f",
"f c #70805f",
"m c #778667",
"l c #7a2d18",
"h c #8dab5f",
"j c #a2a97f",
"g c #bec49f",
"....................############",
"....................############",
"..............................##",
"..............................##",
"..............aaaaa...........##",
".............abcccca..........##",
"............abdbccbda.........##",
"...........acbdbcbddda........##",
"...........acbdbbeddda........##",
"...........abdebffedda........##",
"...........adefbfffeda........##",
"...........aeaafbfaaea........##",
"###########aeghfbfhgea##..##....",
"###########afffffbfffa##..##....",
"...........adfffffbfda..........",
"..........acidjfjfjba...........",
".........accikdjljlka...........",
"........amcikkkdllka............",
"........aimakkkkfkiaa...........",
"........aiiannnoliiiia..........",
"........aiiannnnnaamma..........",
"........aiiappppppaaa...........",
"........ammapppqpppa............",
".........aa.apppqppra...........",
"...........arrraaqrra...........",
"...........assa.affa............",
"...........atta..aa.............",
"........uuuvvvvuvvvvuu..........",
".........uuuuuuuuuuuu...........",
"................................",
"................................",
"................................"};
